<svg id="Capa_1" enable-background="new 0 0 512 512" height="512" viewBox="0 0 512 512" width="512" xmlns="http://www.w3.org/2000/svg"><g><path d="m512 377v-332c0-24.813-20.187-45-45-45h-422c-24.813 0-45 20.187-45 45v422c0 24.813 20.187 45 45 45h332c4.062 0 7.92-1.707 10.609-4.396l119.995-119.995c2.766-2.763 4.396-6.586 4.396-10.609zm-482 90v-422c0-8.271 6.729-15 15-15h422c8.271 0 15 6.729 15 15v317h-105c-8.284 0-15 6.716-15 15v105h-317c-8.271 0-15-6.729-15-15zm430.787-75-68.787 68.787v-68.787z"/><path d="m376 211c0-36.729-16.487-70.942-45.232-93.866-28.754-22.929-66.239-31.289-102.845-22.932-21.42 4.89-41.152 15.905-57.062 31.854-15.906 15.946-26.875 35.703-31.719 57.135-11.916 52.712 11.304 105.52 56.859 131.762v61.047c0 24.813 20.187 45 45 45v15c0 8.284 6.716 15 15 15s15-6.716 15-15v-15c24.813 0 45-20.187 45-45v-61.054c16.49-9.528 30.512-22.861 40.908-38.98 12.489-19.365 19.091-41.83 19.091-64.966zm-105 180h-30c-8.271 0-15-6.729-15-15v-15h60v15c0 8.271-6.729 15-15 15zm23.563-98.653c-5.23 2.485-8.563 7.758-8.563 13.549v25.104h-60v-25.104c0-5.791-3.333-11.064-8.563-13.549-38.396-18.239-58.559-60.406-49.034-102.54 7.306-32.319 33.908-58.986 66.196-66.356 7.065-1.613 14.167-2.406 21.187-2.406 20.458 0 40.214 6.736 56.277 19.545 21.567 17.199 33.937 42.862 33.937 70.41 0 34.573-20.19 66.503-51.437 81.347z"/></g></svg>