<svg id="Capa_1" enable-background="new 0 0 512 512" height="512" viewBox="0 0 512 512" width="512" xmlns="http://www.w3.org/2000/svg"><g><path d="m165 331h182c8.284 0 15-6.716 15-15s-6.716-15-15-15h-182c-8.284 0-15 6.716-15 15s6.716 15 15 15z"/><path d="m208.242 218.894-6.026 35.132c-.965 5.627 1.348 11.315 5.967 14.671 4.611 3.35 10.735 3.803 15.797 1.142l31.551-16.587 31.55 16.587c5.056 2.657 11.179 2.214 15.797-1.142 4.619-3.356 6.933-9.043 5.968-14.671l-6.025-35.132 25.524-24.881c4.089-3.985 5.561-9.946 3.796-15.376s-6.458-9.388-12.108-10.209l-35.274-5.126-15.775-31.964c-2.527-5.12-7.742-8.362-13.451-8.362s-10.924 3.241-13.451 8.362l-15.775 31.964-35.274 5.126c-5.65.821-10.345 4.779-12.109 10.209-1.765 5.43-.293 11.391 3.795 15.376zm30.181-27.038c4.886-.71 9.109-3.779 11.294-8.206l5.814-11.781 5.814 11.781c2.185 4.427 6.409 7.496 11.294 8.206l13.001 1.889-9.407 9.17c-3.536 3.446-5.149 8.411-4.314 13.277l2.221 12.948-11.628-6.113c-4.37-2.298-9.59-2.298-13.96 0l-11.628 6.113 2.221-12.948c.834-4.866-.779-9.831-4.314-13.277l-9.408-9.17z"/><path d="m507.606 245.393-55.606-55.606v-113.787c0-8.284-6.716-15-15-15h-114.714l-55.592-56.519c-2.82-2.866-6.673-4.481-10.694-4.481s-7.874 1.615-10.694 4.481l-55.592 56.519h-114.714c-8.284 0-15 6.716-15 15v113.787l-55.606 55.606c-2.841 2.841-4.372 6.689-4.39 10.538-.001.023-.004.046-.004.069v241c0 8.284 6.716 15 15 15h482c8.284 0 15-6.716 15-15v-240.995c.002-3.841-1.536-7.755-4.394-10.612zm-31.819 10.607-23.787 23.787v-47.574zm-219.787-219.609 24.206 24.609h-48.411zm166 54.609v218.787l-51.213 51.213h-229.574l-51.213-51.213v-218.787zm-362 188.787-23.787-23.787 23.787-23.787zm-30 202.213v-189.787l94.394 94.394c2.813 2.813 6.628 4.393 10.606 4.393h242c3.979 0 7.794-1.58 10.606-4.393l94.394-94.394v189.787z"/></g></svg>